<svg width="960" height="600" version="1.1" xmlns="http://www.w3.org/2000/svg"><g></g><g transform="translate(480,300)scale(1.0041841268539429,1.0041841268539429)"><text text-anchor="middle" transform="translate(-1,-35)rotate(30.00000044529205)scale(0.9999999865388264,0.9999999865388264)" style="font-size: 100px; font-family: Sacrifice; fill: rgb(99, 121, 57);">learning</text><text text-anchor="middle" transform="translate(-222,99)rotate(30.00000044529205)scale(0.9999999865388264,0.9999999865388264)" style="font-size: 100px; font-family: Sacrifice; fill: rgb(82, 84, 163);">modeling</text><text text-anchor="middle" transform="translate(22,99)rotate(15.000000120055859)skewX(1.590277362176623e-15)scale(0.9999999865150161,0.9999999865150161)" style="font-size: 71px; font-family: Sacrifice; fill: rgb(99, 121, 57);">inference</text><text text-anchor="middle" transform="translate(169,-57)rotate(15.000000120055855)skewX(1.590277362176623e-15)scale(0.9999999865150161,0.9999999865150161)" style="font-size: 71px; font-family: Sacrifice; fill: rgb(99, 121, 57);">simulation</text><text text-anchor="middle" transform="translate(231,-142)rotate(-15.000000120055855)skewX(-1.590277362176623e-15)scale(0.9999999865150161,0.9999999865150161)" style="font-size: 48px; font-family: Sacrifice; fill: rgb(140, 109, 49);">biomarker</text><text text-anchor="middle" transform="translate(223,49)rotate(-45)scale(0.999999982885729,0.999999982885729)" style="font-size: 48px; font-family: Sacrifice; fill: rgb(181, 207, 107);">data</text><text text-anchor="middle" transform="translate(260,169)rotate(45)scale(0.999999982885729,0.999999982885729)" style="font-size: 48px; font-family: Sacrifice; fill: rgb(132, 60, 57);">medicine</text><text text-anchor="middle" transform="translate(-202,4)rotate(45)scale(0.999999982885729,0.999999982885729)" style="font-size: 48px; font-family: Sacrifice; fill: rgb(214, 97, 107);">digital</text><text text-anchor="middle" transform="translate(42,176)rotate(-59.999999554707955)skewX(0)scale(0.9999999865388264,0.9999999865388264)" style="font-size: 48px; font-family: Sacrifice; fill: rgb(107, 110, 207);">graph</text><text text-anchor="middle" transform="translate(-41,-9)rotate(30.00000044529205)skewX(0)scale(0.9999999865388264,0.9999999865388264)" style="font-size: 48px; font-family: Sacrifice; fill: rgb(181, 207, 107);">biology</text><text text-anchor="middle" transform="translate(-156,-45)rotate(45)scale(0.999999982885729,0.999999982885729)" style="font-size: 48px; font-family: Sacrifice; fill: rgb(231, 150, 156);">models</text><text text-anchor="middle" transform="translate(-334,-124)rotate(30.00000044529205)skewX(0)scale(0.9999999865388264,0.9999999865388264)" style="font-size: 48px; font-family: Sacrifice; fill: rgb(231, 186, 82);">prediction</text><text text-anchor="middle" transform="translate(296,-84)rotate(15.000000120055859)skewX(1.590277362176623e-15)scale(0.9999999865150161,0.9999999865150161)" style="font-size: 48px; font-family: Sacrifice; fill: rgb(132, 60, 57);">health</text><text text-anchor="middle" transform="translate(-207,-128)" style="font-size: 10px; font-family: Sacrifice; fill: rgb(107, 110, 207);">discovery</text><text text-anchor="middle" transform="translate(199,-22)rotate(-30.000000445292045)scale(0.9999999865388264,0.9999999865388264)" style="font-size: 10px; font-family: Sacrifice; fill: rgb(189, 158, 57);">multimodal</text><text text-anchor="middle" transform="translate(207,10)rotate(0)scale(1,1)" style="font-size: 10px; font-family: Sacrifice; fill: rgb(231, 186, 82);">fusion</text><text text-anchor="middle" transform="translate(-250,-6)rotate(-15.000000120055851)skewX(-1.590277362176623e-15)scale(0.9999999865150161,0.9999999865150161)" style="font-size: 10px; font-family: Sacrifice; fill: rgb(231, 203, 148);">precision</text><text text-anchor="middle" transform="translate(-142,-7)rotate(-15.000000120055855)skewX(-1.590277362176623e-15)scale(0.9999999865150161,0.9999999865150161)" style="font-size: 10px; font-family: Sacrifice; fill: rgb(173, 73, 74);">deep</text><text text-anchor="middle" transform="translate(-130,-152)rotate(-45)scale(0.999999982885729,0.999999982885729)" style="font-size: 10px; font-family: Sacrifice; fill: rgb(231, 150, 156);">twin</text><text text-anchor="middle" transform="translate(-261,136)rotate(-45.00000000000001)scale(0.999999982885729,0.999999982885729)" style="font-size: 10px; font-family: Sacrifice; fill: rgb(123, 65, 115);">genometophenome</text><text text-anchor="middle" transform="translate(-119,-85)rotate(-30.000000445292045)scale(0.9999999865388264,0.9999999865388264)" style="font-size: 10px; font-family: Sacrifice; fill: rgb(231, 150, 156);">mapping</text><text text-anchor="middle" transform="translate(174,-31)rotate(-15.000000120055851)skewX(-1.590277362176623e-15)scale(0.9999999865150161,0.9999999865150161)" style="font-size: 10px; font-family: Sacrifice; fill: rgb(231, 203, 148);">regulatory</text><text text-anchor="middle" transform="translate(-229,124)rotate(-45)scale(0.999999982885729,0.999999982885729)" style="font-size: 10px; font-family: Sacrifice; fill: rgb(222, 158, 214);">network</text><text text-anchor="middle" transform="translate(66,34)rotate(59.999999554707955)scale(0.9999999865388264,0.9999999865388264)" style="font-size: 10px; font-family: Sacrifice; fill: rgb(156, 158, 222);">computational</text><text text-anchor="middle" transform="translate(97,144)rotate(-30.00000044529205)scale(0.9999999865388264,0.9999999865388264)" style="font-size: 10px; font-family: Sacrifice; fill: rgb(165, 81, 148);">pathology</text><text text-anchor="middle" transform="translate(-267,105)rotate(0)scale(1,1)" style="font-size: 10px; font-family: Sacrifice; fill: rgb(206, 109, 189);">singlecell</text><text text-anchor="middle" transform="translate(73,-139)rotate(45)scale(0.999999982885729,0.999999982885729)" style="font-size: 10px; font-family: Sacrifice; fill: rgb(140, 162, 82);">integration</text><text text-anchor="middle" transform="translate(-57,11)rotate(-15.000000120055855)skewX(-1.590277362176623e-15)scale(0.9999999865150161,0.9999999865150161)" style="font-size: 10px; font-family: Sacrifice; fill: rgb(222, 158, 214);">AIguided</text><text text-anchor="middle" transform="translate(-205,147)rotate(-59.999999554707955)scale(0.9999999865388264,0.9999999865388264)" style="font-size: 10px; font-family: Sacrifice; fill: rgb(57, 59, 121);">therapeutics</text><text text-anchor="middle" transform="translate(-152,-97)rotate(-30.000000445292045)scale(0.9999999865388264,0.9999999865388264)" style="font-size: 10px; font-family: Sacrifice; fill: rgb(82, 84, 163);">causal</text><text text-anchor="middle" transform="translate(-19,30)rotate(59.99999955470795)scale(0.9999999865388264,0.9999999865388264)" style="font-size: 10px; font-family: Sacrifice; fill: rgb(156, 158, 222);">neural</text><text text-anchor="middle" transform="translate(-186,55)rotate(0)scale(1,1)" style="font-size: 10px; font-family: Sacrifice; fill: rgb(99, 121, 57);">networks</text><text text-anchor="middle" transform="translate(-74,-10)rotate(45)scale(0.999999982885729,0.999999982885729)" style="font-size: 10px; font-family: Sacrifice; fill: rgb(140, 162, 82);">latent</text><text text-anchor="middle" transform="translate(-282,-42)rotate(-59.99999955470794)skewX(0)scale(0.9999999865388264,0.9999999865388264)" style="font-size: 10px; font-family: Sacrifice; fill: rgb(181, 207, 107);">representation</text><text text-anchor="middle" transform="translate(39,47)rotate(59.99999955470794)skewX(0)scale(0.9999999865388264,0.9999999865388264)" style="font-size: 10px; font-family: Sacrifice; fill: rgb(206, 219, 156);">clinical</text><text text-anchor="middle" transform="translate(110,71)rotate(45)scale(0.999999982885729,0.999999982885729)" style="font-size: 10px; font-family: Sacrifice; fill: rgb(140, 109, 49);">decision</text><text text-anchor="middle" transform="translate(108,-49)rotate(-45)scale(0.999999982885729,0.999999982885729)" style="font-size: 10px; font-family: Sacrifice; fill: rgb(189, 158, 57);">support</text><text text-anchor="middle" transform="translate(-255,-137)rotate(-15.000000120055855)skewX(-1.590277362176623e-15)scale(0.9999999865150161,0.9999999865150161)" style="font-size: 10px; font-family: Sacrifice; fill: rgb(231, 186, 82);">predictive</text><text text-anchor="middle" transform="translate(-212,-77)rotate(59.999999554707955)scale(0.9999999865388264,0.9999999865388264)" style="font-size: 10px; font-family: Sacrifice; fill: rgb(173, 73, 74);">highdimensional</text><text text-anchor="middle" transform="translate(-1,-133)rotate(-59.99999955470795)scale(0.9999999865388264,0.9999999865388264)" style="font-size: 10px; font-family: Sacrifice; fill: rgb(214, 97, 107);">mining</text><text text-anchor="middle" transform="translate(141,-46)rotate(0)scale(1,1)" style="font-size: 10px; font-family: Sacrifice; fill: rgb(231, 150, 156);">federated</text><text text-anchor="middle" transform="translate(-81,94)rotate(-15.000000120055851)skewX(-1.590277362176623e-15)scale(0.9999999865150161,0.9999999865150161)" style="font-size: 10px; font-family: Sacrifice; fill: rgb(123, 65, 115);">synthetic</text><text text-anchor="middle" transform="translate(269,20)rotate(-45)scale(0.999999982885729,0.999999982885729)" style="font-size: 10px; font-family: Sacrifice; fill: rgb(165, 81, 148);">automated</text><text text-anchor="middle" transform="translate(-14,-140)rotate(-45)scale(0.999999982885729,0.999999982885729)" style="font-size: 10px; font-family: Sacrifice; fill: rgb(206, 109, 189);">hypothesis</text><text text-anchor="middle" transform="translate(11,125)rotate(-30.00000044529205)scale(0.9999999865388264,0.9999999865388264)" style="font-size: 10px; font-family: Sacrifice; fill: rgb(222, 158, 214);">generation</text><text text-anchor="middle" transform="translate(52,40)rotate(59.99999955470795)scale(0.9999999865388264,0.9999999865388264)" style="font-size: 10px; font-family: Sacrifice; fill: rgb(57, 59, 121);">realtime</text><text text-anchor="middle" transform="translate(-69,110)rotate(15.000000120055851)skewX(1.590277362176623e-15)scale(0.9999999865150161,0.9999999865150161)" style="font-size: 10px; font-family: Sacrifice; fill: rgb(82, 84, 163);">disease</text><text text-anchor="middle" transform="translate(210,-8)rotate(-15.000000120055855)skewX(-1.590277362176623e-15)scale(0.9999999865150161,0.9999999865150161)" style="font-size: 10px; font-family: Sacrifice; fill: rgb(107, 110, 207);">surveillance</text><text text-anchor="middle" transform="translate(108,-152)rotate(-15.000000120055855)skewX(-1.590277362176623e-15)scale(0.9999999865150161,0.9999999865150161)" style="font-size: 10px; font-family: Sacrifice; fill: rgb(156, 158, 222);">generative</text><text text-anchor="middle" transform="translate(187,150)rotate(0)scale(1,1)" style="font-size: 10px; font-family: Sacrifice; fill: rgb(99, 121, 57);">interpretable</text><text text-anchor="middle" transform="translate(24,-30)rotate(-30.00000044529205)scale(0.9999999865388264,0.9999999865388264)" style="font-size: 10px; font-family: Sacrifice; fill: rgb(140, 162, 82);">AI</text><text text-anchor="middle" transform="translate(-76,-146)rotate(30.00000044529205)scale(0.9999999865388264,0.9999999865388264)" style="font-size: 10px; font-family: Sacrifice; fill: rgb(181, 207, 107);">molecular</text><text text-anchor="middle" transform="translate(-302,74)rotate(45)scale(0.999999982885729,0.999999982885729)" style="font-size: 10px; font-family: Sacrifice; fill: rgb(206, 219, 156);">phenotype</text><text text-anchor="middle" transform="translate(195,-109)rotate(30.00000044529205)skewX(0)scale(0.9999999865388264,0.9999999865388264)" style="font-size: 10px; font-family: Sacrifice; fill: rgb(99, 121, 57);">protein</text><text text-anchor="middle" transform="translate(16,50)rotate(15.000000120055859)skewX(1.590277362176623e-15)scale(0.9999999865150161,0.9999999865150161)" style="font-size: 10px; font-family: Sacrifice; fill: rgb(140, 109, 49);">folding</text><text text-anchor="middle" transform="translate(57,-175)rotate(-59.99999955470794)skewX(0)scale(0.9999999865388264,0.9999999865388264)" style="font-size: 10px; font-family: Sacrifice; fill: rgb(189, 158, 57);">neurosymbolic</text><text text-anchor="middle" transform="translate(89,28)rotate(30.00000044529205)scale(0.9999999865388264,0.9999999865388264)" style="font-size: 10px; font-family: Sacrifice; fill: rgb(231, 186, 82);">reasoning</text><text text-anchor="middle" transform="translate(-165,163)rotate(0)scale(1,1)" style="font-size: 10px; font-family: Sacrifice; fill: rgb(231, 203, 148);">longitudinal</text><text text-anchor="middle" transform="translate(247,49)rotate(0)skewX(0)scale(1,1)" style="font-size: 10px; font-family: Sacrifice; fill: rgb(132, 60, 57);">patient</text><text text-anchor="middle" transform="translate(241,80)rotate(15.000000120055855)skewX(1.590277362176623e-15)scale(0.9999999865150161,0.9999999865150161)" style="font-size: 10px; font-family: Sacrifice; fill: rgb(173, 73, 74);">personalized</text><text text-anchor="middle" transform="translate(-27,107)rotate(45)skewX(0)scale(0.999999982885729,0.999999982885729)" style="font-size: 10px; font-family: Sacrifice; fill: rgb(214, 97, 107);">treatment</text><text text-anchor="middle" transform="translate(115,154)rotate(-15.000000120055855)skewX(-1.590277362176623e-15)scale(0.9999999865150161,0.9999999865150161)" style="font-size: 10px; font-family: Sacrifice; fill: rgb(231, 150, 156);">optimization</text><text text-anchor="middle" transform="translate(-208,-164)rotate(-59.99999955470795)scale(0.9999999865388264,0.9999999865388264)" style="font-size: 10px; font-family: Sacrifice; fill: rgb(123, 65, 115);">omicsaware</text><text text-anchor="middle" transform="translate(155,90)rotate(15.000000120055855)skewX(1.590277362176623e-15)scale(0.9999999865150161,0.9999999865150161)" style="font-size: 10px; font-family: Sacrifice; fill: rgb(156, 158, 222);">machine</text><text text-anchor="middle" transform="translate(-230,144)rotate(-30.000000445292052)scale(0.9999999865388264,0.9999999865388264)" style="font-size: 10px; font-family: Sacrifice; fill: rgb(165, 81, 148);">knowledge</text><text text-anchor="middle" transform="translate(69,-52)rotate(-59.99999955470795)scale(0.9999999865388264,0.9999999865388264)" style="font-size: 10px; font-family: Sacrifice; fill: rgb(206, 109, 189);">trajectory</text><text text-anchor="middle" transform="translate(95,173)rotate(-15.000000120055851)skewX(-1.590277362176623e-15)scale(0.9999999865150161,0.9999999865150161)" style="font-size: 10px; font-family: Sacrifice; fill: rgb(222, 158, 214);">adaptive</text><text text-anchor="middle" transform="translate(-268,88)rotate(30.00000044529205)scale(0.9999999865388264,0.9999999865388264)" style="font-size: 10px; font-family: Sacrifice; fill: rgb(57, 59, 121);">trial</text><text text-anchor="middle" transform="translate(131,-171)rotate(45)scale(0.999999982885729,0.999999982885729)" style="font-size: 10px; font-family: Sacrifice; fill: rgb(82, 84, 163);">extraction</text><text text-anchor="middle" transform="translate(282,101)rotate(-45.00000000000001)scale(0.999999982885729,0.999999982885729)" style="font-size: 10px; font-family: Sacrifice; fill: rgb(107, 110, 207);">reinforcement</text><text text-anchor="middle" transform="translate(-251,-158)rotate(15.000000120055855)skewX(1.590277362176623e-15)scale(0.9999999865150161,0.9999999865150161)" style="font-size: 10px; font-family: Sacrifice; fill: rgb(156, 158, 222);">biological</text><text text-anchor="middle" transform="translate(249,62)rotate(0)scale(1,1)" style="font-size: 10px; font-family: Sacrifice; fill: rgb(140, 162, 82);">systems</text><text text-anchor="middle" transform="translate(279,-137)rotate(0)scale(1,1)" style="font-size: 10px; font-family: Sacrifice; fill: rgb(181, 207, 107);">probabilistic</text><text text-anchor="middle" transform="translate(-97,-173)rotate(15.000000120055851)skewX(1.590277362176623e-15)scale(0.9999999865150161,0.9999999865150161)" style="font-size: 10px; font-family: Sacrifice; fill: rgb(99, 121, 57);">graphical</text><text text-anchor="middle" transform="translate(-287,139)rotate(-45)scale(0.999999982885729,0.999999982885729)" style="font-size: 10px; font-family: Sacrifice; fill: rgb(57, 59, 121);">evolutionary</text><text text-anchor="middle" transform="translate(-269,-19)rotate(-30.000000445292052)scale(0.9999999865388264,0.9999999865388264)" style="font-size: 10px; font-family: Sacrifice; fill: rgb(140, 162, 82);">algorithm</text><text text-anchor="middle" transform="translate(-3,104)rotate(30.00000044529205)scale(0.9999999865388264,0.9999999865388264)" style="font-size: 10px; font-family: Sacrifice; fill: rgb(140, 162, 82);">design</text><text text-anchor="middle" transform="translate(-183,176)rotate(15.000000120055855)skewX(1.590277362176623e-15)scale(0.9999999865150161,0.9999999865150161)" style="font-size: 10px; font-family: Sacrifice; fill: rgb(181, 207, 107);">AIenhanced</text><text text-anchor="middle" transform="translate(-19,-153)rotate(-45)scale(0.999999982885729,0.999999982885729)" style="font-size: 10px; font-family: Sacrifice; fill: rgb(206, 219, 156);">diagnostics</text><text text-anchor="middle" transform="translate(-79,26)rotate(15.000000120055855)skewX(1.590277362176623e-15)scale(0.9999999865150161,0.9999999865150161)" style="font-size: 10px; font-family: Sacrifice; fill: rgb(123, 65, 115);">dynamic</text><text text-anchor="middle" transform="translate(56,-73)rotate(15.000000120055859)skewX(1.590277362176623e-15)scale(0.9999999865150161,0.9999999865150161)" style="font-size: 10px; font-family: Sacrifice; fill: rgb(140, 109, 49);">state</text></g></svg>